<svg width="574" height="128" viewBox="0 0 574 128" fill="none" xmlns="http://www.w3.org/2000/svg">
<path d="M34.7201 40.7172H3.42337L0 70.1976L13.6627 77.8263L3.42337 89.6234L20.14 107.461L43.0631 100.091L47.6255 124.522L76.4471 127.755L79.7597 100.091H99.6165L114.375 75.1788L92.037 64.7732L107.922 40.7172L86.2431 24.4439L63.8065 31.8263L60.1676 0L20.14 9.22341L34.7201 40.7172Z" fill="#F19640"/>
<path d="M49.8667 67.4021C40.6371 64.576 31.4137 61.7498 22.1842 58.9176L14.4323 56.5409C12.9792 56.0976 11.206 57.0704 10.8612 58.5666C10.5164 60.0628 11.3353 61.6636 12.8869 62.1377C22.1164 64.9639 31.3398 67.79 40.5694 70.6223C43.1554 71.4166 45.7353 72.2047 48.3213 72.9989C49.7743 73.4423 51.5476 72.4694 51.8924 70.9732C52.2372 69.4771 51.4183 67.8762 49.8667 67.4021Z" fill="#221F20"/>
<path d="M50.3901 79.1746C42.3242 81.1634 34.2584 83.1521 26.1925 85.1409L19.3704 86.8218C17.8927 87.1851 16.8706 88.9275 17.3447 90.3929C17.8188 91.8583 19.3334 92.8127 20.9158 92.4187C28.9817 90.4299 37.0475 88.4411 45.1134 86.4524L51.9355 84.7715C53.4133 84.4082 54.4353 82.6657 53.9612 81.2003C53.4871 79.7349 51.9725 78.7806 50.3901 79.1746Z" fill="#221F20"/>
<path d="M59.1948 86.1632C59.1948 93.404 59.1948 100.639 59.1948 107.879V114.03C59.1948 115.551 60.5309 117.004 62.0949 116.93C63.6588 116.857 64.9948 115.656 64.9948 114.03V86.1693C64.9948 84.6485 63.6588 83.1954 62.0949 83.2693C60.5309 83.3432 59.1948 84.5438 59.1948 86.1693V86.1632Z" fill="#221F20"/>
<path d="M71.3429 67.8458C76.7735 61.9411 82.2102 56.0425 87.6408 50.1378C89.1924 48.4569 90.7379 46.7699 92.2895 45.089C93.3177 43.9745 93.4778 42.072 92.2895 40.9821C91.1689 39.9539 89.2848 39.7877 88.1827 40.9821C82.7521 46.8869 77.3153 52.7854 71.8847 58.6901L67.236 63.739C66.2078 64.8534 66.0477 66.756 67.236 67.8458C68.3566 68.874 70.2408 69.0403 71.3429 67.8458Z" fill="#221F20"/>
<path d="M72.5496 80.3323C78.559 82.9921 84.5623 85.6459 90.5716 88.3058C91.3105 88.6321 92.0001 88.823 92.8067 88.6013C93.4778 88.4166 94.2105 87.8932 94.543 87.2652C94.9001 86.5941 95.0787 85.7752 94.8385 85.0302C94.623 84.359 94.1797 83.5955 93.5024 83.2938C87.4931 80.634 81.4898 77.9802 75.4805 75.3203C74.7416 74.994 74.052 74.8031 73.2454 75.0248C72.5743 75.2095 71.8416 75.7329 71.5091 76.3609C71.152 77.032 70.9734 77.8509 71.2136 78.5959C71.4291 79.2671 71.8724 80.0306 72.5496 80.3323Z" fill="#221F20"/>
<path d="M44.4423 19.9432C47.0283 30.6382 49.6204 41.327 52.2064 52.022C52.933 55.0205 53.6595 58.0252 54.386 61.0237C54.7432 62.5014 56.4979 63.5235 57.9572 63.0494C59.4903 62.5507 60.3647 61.0606 59.9829 59.4783C57.3969 48.7833 54.8047 38.0945 52.2187 27.3995C51.4922 24.401 50.7656 21.3963 50.0391 18.3978C49.682 16.9201 47.9272 15.898 46.468 16.3721C44.9348 16.8708 44.0605 18.3608 44.4423 19.9432Z" fill="#221F20"/>
<path d="M565.953 65.943C560.577 60.8757 552.407 57.1506 541.435 54.7678L527.249 51.8493L515.31 49.3926C510.298 48.3213 506.536 46.4741 504.036 43.845C501.53 41.2221 500.274 38.2975 500.274 35.0773C500.274 33.1747 500.81 31.2968 501.888 29.4435C502.959 27.5902 504.418 25.9832 506.271 24.6101C508.119 23.2432 510.323 22.1349 512.89 21.2976C515.452 20.4664 518.29 20.0477 521.393 20.0477C525.802 20.0477 529.589 20.6449 532.753 21.8394C535.912 23.0339 538.75 24.3392 541.256 25.7738C542.931 26.7282 544.507 27.6394 546.003 28.4891L560.356 10.6088C558.478 9.40812 556.341 8.25673 553.958 7.16076C551.052 5.82466 547.863 4.63633 544.39 3.58346C542.586 3.03547 540.708 2.53059 538.75 2.06264C533.024 0.6896 527.119 0 521.036 0C513.161 0 506.21 0.991301 500.188 2.95543C499.566 3.15862 498.963 3.3618 498.366 3.58346C493.138 5.49833 488.699 8.02892 485.066 11.1875C481.002 14.7094 477.936 18.9455 475.849 23.8959C473.762 28.8462 472.721 34.2461 472.721 40.0892C472.721 45.3412 473.731 49.7497 475.757 53.3332C477.788 56.9105 480.325 59.9275 483.361 62.3719C486.408 64.8163 489.598 66.725 492.935 68.098C496.278 69.4711 499.32 70.5116 502.066 71.2259C504.609 71.8785 507.361 72.445 510.335 72.9252C512.231 73.2331 514.22 73.4979 516.289 73.7318C521.603 74.3291 526.584 75.1972 531.232 76.3301C535.881 77.4631 539.822 79.1317 543.042 81.3359C546.268 83.5463 547.875 86.7357 547.875 90.9103C547.875 95.8052 545.308 99.8258 540.185 102.991C535.05 106.155 528.191 107.732 519.602 107.732C515.667 107.732 512.053 107.11 508.771 105.854C505.489 104.604 502.454 103.262 499.652 101.827C496.845 100.392 494.246 99.0562 491.864 97.8001C491.494 97.6092 491.137 97.4307 490.786 97.2768L476.766 114.732C479.057 116.542 481.877 118.266 485.245 119.898C487.917 121.203 490.866 122.398 494.093 123.475C496.186 124.183 498.396 124.836 500.724 125.446C506.628 126.997 512.915 127.779 519.602 127.779C530.728 127.779 540.24 126.345 548.134 123.475C549.593 122.946 550.991 122.373 552.339 121.739L573.286 95.485C573.76 92.8128 574 89.9682 574 86.9697C574 78.0295 571.322 71.0165 565.953 65.943Z" fill="#221F20"/>
<path d="M233.128 98.8838L226.891 87.7209C225.875 86.0646 225.364 83.7803 225.364 80.8557C225.364 80.3631 225.413 79.8582 225.524 79.341C226.072 76.6442 228.048 73.5902 231.466 70.173C233.116 68.9046 234.329 67.9811 235.092 67.4084C235.856 66.8358 236.361 66.4233 236.619 66.1709L237.192 65.5982C237.315 65.4751 237.697 65.0934 238.331 64.453C239.347 63.4371 240.209 62.5135 240.905 61.6885C241.022 61.5468 241.151 61.3929 241.286 61.2144C241.97 60.3462 242.887 59.0101 244.051 57.2061C247.105 51.4861 248.632 45.5136 248.632 39.2826C248.632 30.6626 246.846 23.4156 243.281 17.5417C241.594 14.7525 239.501 12.2774 237.001 10.1039C229.243 3.36796 218.246 0 204.011 0H149.268L139.552 12.185V127.761H150.277L150.333 127.687H150.339C150.647 127.712 150.961 127.73 151.281 127.736C151.681 127.755 152.094 127.761 152.519 127.761H165.867V79.341H180.903C181.032 79.3348 181.162 79.3287 181.297 79.3287C181.673 79.3287 182.048 79.3287 182.412 79.341H192.867L202.127 95.3311L202.176 95.4173C203.334 97.3383 204.577 99.481 205.914 101.827L206.886 103.557L217.981 122.718C217.532 122.195 217.113 121.622 216.738 121.013L220.543 127.761H237.647L244.463 119.221L242.062 114.911L233.128 98.8838ZM220.026 48.1119C218.751 50.7657 217.003 53.0808 214.78 55.0387C212.557 57.0029 209.885 58.5237 206.775 59.6012C203.654 60.6725 200.317 61.2144 196.764 61.2144H165.867V17.5417H196C200.193 17.5417 203.912 18.1143 207.157 19.2534C210.396 20.3925 213.099 21.9441 215.26 23.902C217.421 25.8662 219.071 28.1751 220.217 30.835C221.362 33.4949 221.934 36.2779 221.934 39.1841C221.934 42.4782 221.294 45.4521 220.026 48.1119Z" fill="#221F20"/>
<path d="M371.208 97.4799L344.794 27.5286L337.369 7.88115L334.395 0H301.639L298.677 7.93656C298.455 8.44761 298.246 8.97712 298.043 9.53126L263.403 103.021L263.224 103.502L254.389 127.09L254.764 127.761H283.383L287.366 118.993C289.016 116.198 290.543 113.969 291.941 112.319C293.339 110.669 294.773 109.425 296.233 108.6C297.692 107.775 299.348 107.264 301.195 107.073C303.036 106.882 305.29 106.79 307.962 106.79H322.456C327.031 106.79 330.811 106.882 333.804 107.073C336.784 107.264 338.852 107.676 339.998 108.31C341.906 109.074 343.458 110.127 344.671 111.457C345.878 112.793 347.245 114.923 348.772 117.848C349.006 118.242 349.233 118.624 349.461 118.993V119.005L353.445 127.761H372.267L379.348 118.888L371.208 97.4799ZM332.56 82.3765C330.276 85.4304 327.031 86.9574 322.838 86.9574H312.919C311.139 86.9574 309.52 86.5449 308.054 85.7136C306.595 84.8886 305.358 83.8111 304.342 82.475C303.32 81.1389 302.587 79.6488 302.144 77.9926C301.7 76.3425 301.731 74.6246 302.242 72.8452L309.489 48.0565C311.392 41.1913 314.316 37.7556 318.257 37.7556C320.165 37.7556 321.883 38.5499 323.41 40.1384C324.931 41.7331 326.267 44.6208 327.412 48.8139L334.278 72.0817C335.423 75.893 334.85 79.3287 332.56 82.3765Z" fill="#221F20"/>
<path d="M478.367 0L472.475 8.18285L458.332 27.818L438.186 55.6791C434.873 60.1307 432.841 64.6747 432.084 69.3172C431.32 73.9596 430.939 77.8017 430.939 80.8557V115.36L421.044 127.761H400.042V77.8017C400.042 76.404 399.919 74.8155 399.66 73.0361C399.408 71.2567 399.026 69.4772 398.521 67.6978C398.01 65.9184 397.407 64.2006 396.705 62.5443C396.009 60.8942 395.209 59.4965 394.322 58.3513L381.491 40.3539L380.536 39.0178L352.669 0H388.337L403.798 24.7702L403.866 24.8749L405.005 26.6974C407.166 30.1269 409.038 32.3189 410.626 33.2732C412.215 34.2276 413.773 34.7078 415.3 34.7078C417.079 34.7078 418.858 34.0367 420.638 32.7006C422.417 31.3707 424.197 29.2403 425.982 26.3156L433.026 15.0789L433.069 15.0111L442.391 0L478.367 0Z" fill="#221F20"/>
</svg>